<svg width="27" height="27" viewBox="0 0 27 27" fill="none" xmlns="http://www.w3.org/2000/svg">
<path d="M19.1718 12.8179C19.0916 12.7536 18.9919 12.7186 18.8892 12.7186C18.7864 12.7186 18.6867 12.7536 18.6066 12.8179L14.5656 16.0723C14.5137 16.1141 14.4719 16.167 14.4432 16.2271C14.4146 16.2873 14.3998 16.3531 14.4 16.4197V24.7447C14.4 24.8655 14.448 24.9813 14.5334 25.0667C14.6188 25.1521 14.7346 25.2001 14.8554 25.2001H17.5446C17.6654 25.2001 17.7812 25.1521 17.8666 25.0667C17.952 24.9813 18 24.8655 18 24.7447V21.6001H19.8V24.7447C19.8 24.8655 19.848 24.9813 19.9334 25.0667C20.0188 25.1521 20.1346 25.2001 20.2554 25.2001H22.9446C23.0654 25.2001 23.1812 25.1521 23.2666 25.0667C23.352 24.9813 23.4 24.8655 23.4 24.7447V16.4161C23.4013 16.3471 23.3867 16.2788 23.3573 16.2164C23.328 16.1539 23.2847 16.0991 23.2308 16.0561L19.1718 12.8179ZM18 19.8001H16.2V18.0001H18V19.8001ZM21.6 19.8001H19.8V18.0001H21.6V19.8001ZM10.278 3.26707C10.2366 3.20469 10.1804 3.15353 10.1145 3.11813C10.0485 3.08273 9.97483 3.06421 9.89998 3.06421C9.82513 3.06421 9.75144 3.08273 9.68548 3.11813C9.61953 3.15353 9.56336 3.20469 9.52198 3.26707L3.67558 10.6849C3.62604 10.7596 3.59973 10.8472 3.59998 10.9369V24.7447C3.59974 24.8042 3.61124 24.8633 3.63382 24.9184C3.65639 24.9735 3.68961 25.0237 3.73156 25.0659C3.77352 25.1082 3.82339 25.1418 3.87833 25.1649C3.93327 25.1879 3.99221 25.1998 4.05178 25.2001H8.55178C8.67114 25.1987 8.78514 25.1502 8.86904 25.0653C8.95294 24.9804 8.99999 24.8658 8.99998 24.7465V21.6001H10.8V24.7465C10.8 24.8668 10.8478 24.9822 10.9328 25.0672C11.0179 25.1523 11.1333 25.2001 11.2536 25.2001H12.6V14.4001C12.5999 14.2649 12.6303 14.1314 12.6889 14.0096C12.7475 13.8877 12.8327 13.7806 12.9384 13.6963L16.2 10.8001C16.2 10.7101 10.278 3.26707 10.278 3.26707ZM7.19998 18.0001H5.39998V16.2001H7.19998V18.0001ZM7.19998 12.6001H5.39998V10.8001H7.19998V12.6001ZM10.8 18.0001H8.99998V16.2001H10.8V18.0001ZM10.8 12.6001H8.99998V10.8001H10.8V12.6001Z" fill="#A1A1AA"/>
</svg>
