<svg width="27" height="27" viewBox="0 0 27 27" fill="none" xmlns="http://www.w3.org/2000/svg">
<path d="M4.29467 6.1685C5.51842 6.1685 6.50988 5.1762 6.50988 3.95324C6.50988 2.72901 5.51842 1.73755 4.29467 1.73755C3.07039 1.73755 2.07898 2.72901 2.07898 3.95324C2.07898 5.1762 3.07039 6.1685 4.29467 6.1685Z" fill="#A1A1AA"/>
<path d="M11.8213 12.922C11.8213 12.8768 11.8138 12.8338 11.808 12.7902L15.117 10.3887C15.3249 10.2375 15.3717 9.94512 15.2205 9.73677C15.1328 9.61627 14.9915 9.54418 14.8424 9.54418C14.7434 9.54418 14.649 9.57524 14.5687 9.63325L11.253 12.0398C11.1296 11.9835 10.9942 11.95 10.8496 11.95H9.04727L8.60989 9.45976C8.36968 8.2041 7.8657 7.21802 6.79224 7.21802H2.24126C1.16786 7.21802 0 8.38587 0 9.45976V16.906C0 17.4427 0.434848 17.878 0.971578 17.878C1.23583 17.878 0.971578 17.878 1.64995 17.878L2.01936 24.2285C2.01936 24.7996 2.48279 25.2626 3.0539 25.2626C3.4821 25.2626 4.55145 25.2626 5.12256 25.2626C5.69368 25.2626 6.15669 24.7996 6.15669 24.2285L6.64205 11.6498H6.66647L6.94438 12.8768C7.03635 13.462 7.53991 13.8936 8.13217 13.8936H10.8498C11.3864 13.8936 11.8213 13.4587 11.8213 12.922ZM3.58731 11.5416V8.00191H4.85958V11.5416L4.18368 12.3388L3.58731 11.5416Z" fill="#A1A1AA"/>
<path d="M10.0367 2.50342V10.5928H11.309V3.77563H25.7277V15.9328H11.309V14.4026H10.0367V17.205H27V2.50342H10.0367Z" fill="#A1A1AA"/>
<path d="M16.4431 20.4925C16.4431 19.501 15.6397 18.698 14.6487 18.698C13.6572 18.698 12.8538 19.501 12.8538 20.4925C12.8538 21.4831 13.6572 22.2869 14.6487 22.2869C15.6397 22.2869 16.4431 21.4831 16.4431 20.4925Z" fill="#A1A1AA"/>
<path d="M14.6486 23.248C13.3693 23.248 12.2826 24.0875 11.8652 25.2624H17.4321C17.0146 24.0875 15.9279 23.248 14.6486 23.248Z" fill="#A1A1AA"/>
<path d="M24.1826 20.4925C24.1826 19.501 23.3792 18.698 22.3881 18.698C21.3967 18.698 20.5933 19.501 20.5933 20.4925C20.5933 21.4831 21.3967 22.2869 22.3881 22.2869C23.3792 22.2869 24.1826 21.4831 24.1826 20.4925Z" fill="#A1A1AA"/>
<path d="M22.3881 23.248C21.1088 23.248 20.0221 24.0875 19.6046 25.2624H25.1715C24.7541 24.0875 23.6674 23.248 22.3881 23.248Z" fill="#A1A1AA"/>
</svg>
