<svg width="218" height="343" viewBox="0 0 218 343" fill="none" xmlns="http://www.w3.org/2000/svg">
<path d="M4 254C4 251.791 5.79086 250 8 250H93C95.2091 250 97 251.791 97 254V339C97 341.209 95.2091 343 93 343H8C5.79086 343 4 341.209 4 339V254Z" fill="#C4C1C1" fill-opacity="0.05"/>
<path d="M0 -28C0 -30.2091 1.79086 -32 4 -32H89C91.2091 -32 93 -30.2091 93 -28V57C93 59.2091 91.2091 61 89 61H4C1.79086 61 0 59.2091 0 57V-28Z" fill="#C4C1C1" fill-opacity="0.05"/>
<path d="M124.5 128C124.5 125.791 126.291 124 128.5 124H213.5C215.709 124 217.5 125.791 217.5 128V213C217.5 215.209 215.709 217 213.5 217H128.5C126.291 217 124.5 215.209 124.5 213V128Z" fill="#C4C1C1" fill-opacity="0.05"/>
</svg>
