<svg width="27" height="27" viewBox="0 0 27 27" fill="none" xmlns="http://www.w3.org/2000/svg">
<path d="M2.70404 7.9433L13.5 13.3406L24.2959 7.9433C24.256 7.2554 23.9545 6.60881 23.4533 6.13596C22.9521 5.66311 22.2891 5.39978 21.6 5.3999H5.39999C4.71093 5.39978 4.04789 5.66311 3.54668 6.13596C3.04547 6.60881 2.74401 7.2554 2.70404 7.9433Z" fill="#A1A1AA"/>
<path d="M24.3 10.9592L13.5 16.3592L2.70001 10.9592V18.8999C2.70001 19.616 2.98448 20.3028 3.49082 20.8091C3.99717 21.3155 4.68393 21.5999 5.40001 21.5999H21.6C22.3161 21.5999 23.0029 21.3155 23.5092 20.8091C24.0155 20.3028 24.3 19.616 24.3 18.8999V10.9592Z" fill="#A1A1AA"/>
</svg>
