<svg width="77" height="77" viewBox="0 0 77 77" fill="none" xmlns="http://www.w3.org/2000/svg">
<path d="M60.3167 0H16.6833C7.48434 0 0 7.48434 0 16.6833V60.3166C0 69.5157 7.48434 77 16.6833 77H60.3166C69.5157 77 77 69.5157 77 60.3167V16.6833C77 7.48434 69.5157 0 60.3167 0ZM29.1459 52.238C28.8956 52.4883 28.567 52.614 28.2385 52.614C27.9099 52.614 27.5815 52.4883 27.3312 52.238L14.5787 39.4843C14.4196 39.3547 14.2925 39.1865 14.2104 38.9915C14.0114 38.5116 14.1102 37.9596 14.4774 37.5927L27.3197 24.7516C27.8215 24.2497 28.6338 24.2497 29.1343 24.7516C29.6361 25.2521 29.6361 26.0645 29.1343 26.5662L17.2109 38.4884L29.1459 50.4222C29.6476 50.9239 29.6476 51.7363 29.1459 52.238ZM43.5794 26.035L35.8794 51.7017C35.7127 52.2586 35.2031 52.6167 34.65 52.6167C34.528 52.6167 34.4049 52.6 34.2817 52.5629C33.6028 52.3588 33.2178 51.644 33.4206 50.9651L41.1206 25.2984C41.3233 24.6195 42.0369 24.2306 42.7183 24.4373C43.3985 24.6414 43.7822 25.3562 43.5794 26.035ZM62.5727 39.4073L49.7304 52.2484C49.4802 52.5 49.1516 52.6244 48.8231 52.6244C48.4945 52.6244 48.1661 52.4999 47.9158 52.2484C47.4141 51.7479 47.4141 50.9355 47.9158 50.4338L59.8392 38.5116L47.9042 26.5766C47.4037 26.0761 47.4037 25.2637 47.9042 24.762C48.4061 24.2615 49.2183 24.2615 49.7188 24.762L62.4726 37.5157C62.6317 37.6453 62.7588 37.8135 62.8397 38.0085C63.0386 38.4884 62.9398 39.0404 62.5727 39.4073Z" fill="#EABBCC" fill-opacity="0.22"/>
<path d="M60.3167 0H16.6833C7.48434 0 0 7.48434 0 16.6833V60.3166C0 69.5157 7.48434 77 16.6833 77H60.3166C69.5157 77 77 69.5157 77 60.3167V16.6833C77 7.48434 69.5157 0 60.3167 0ZM29.1459 52.238C28.8956 52.4883 28.567 52.614 28.2385 52.614C27.9099 52.614 27.5815 52.4883 27.3312 52.238L14.5787 39.4843C14.4196 39.3547 14.2925 39.1865 14.2104 38.9915C14.0114 38.5116 14.1102 37.9596 14.4774 37.5927L27.3197 24.7516C27.8215 24.2497 28.6338 24.2497 29.1343 24.7516C29.6361 25.2521 29.6361 26.0645 29.1343 26.5662L17.2109 38.4884L29.1459 50.4222C29.6476 50.9239 29.6476 51.7363 29.1459 52.238ZM43.5794 26.035L35.8794 51.7017C35.7127 52.2586 35.2031 52.6167 34.65 52.6167C34.528 52.6167 34.4049 52.6 34.2817 52.5629C33.6028 52.3588 33.2178 51.644 33.4206 50.9651L41.1206 25.2984C41.3233 24.6195 42.0369 24.2306 42.7183 24.4373C43.3985 24.6414 43.7822 25.3562 43.5794 26.035ZM62.5727 39.4073L49.7304 52.2484C49.4802 52.5 49.1516 52.6244 48.8231 52.6244C48.4945 52.6244 48.1661 52.4999 47.9158 52.2484C47.4141 51.7479 47.4141 50.9355 47.9158 50.4338L59.8392 38.5116L47.9042 26.5766C47.4037 26.0761 47.4037 25.2637 47.9042 24.762C48.4061 24.2615 49.2183 24.2615 49.7188 24.762L62.4726 37.5157C62.6317 37.6453 62.7588 37.8135 62.8397 38.0085C63.0386 38.4884 62.9398 39.0404 62.5727 39.4073Z" fill="#EABBCC" fill-opacity="0.22"/>
</svg>
