<svg width="27" height="27" viewBox="0 0 27 27" fill="none" xmlns="http://www.w3.org/2000/svg">
<path fill-rule="evenodd" clip-rule="evenodd" d="M12.4459 2.7775C13.0181 2.31967 13.8141 2.28697 14.4183 2.67939L14.5541 2.7775L19.4056 6.65861C19.8859 7.04291 20.1856 7.60496 20.2408 8.21181L20.25 8.41557V11.2501H22.5C23.6862 11.2501 24.6579 12.1679 24.7438 13.3321L24.75 13.5001V22.3876C24.75 23.0254 24.2674 23.5506 23.6473 23.6178L23.5125 23.6251H3.4875C2.84961 23.6251 2.32445 23.1424 2.25726 22.5224L2.25 22.3876V13.5001C2.25 12.3139 3.16786 11.3421 4.33208 11.2562L4.5 11.2501H6.75V8.41557C6.75 7.80041 7.00167 7.21527 7.44109 6.79311L7.59444 6.65861L12.4459 2.7775ZM13.5 4.81557L9 8.41557V21.3748H18V8.41557L13.5 4.81557ZM22.5 13.5001H20.25V21.3751H22.5V13.5001ZM6.75 13.5001H4.5V21.3751H6.75V13.5001ZM13.5 9.00006C15.364 9.00006 16.875 10.5111 16.875 12.3751C16.875 14.2391 15.364 15.7501 13.5 15.7501C11.636 15.7501 10.125 14.2391 10.125 12.3751C10.125 10.5111 11.636 9.00006 13.5 9.00006ZM13.5 11.2501C12.8787 11.2501 12.375 11.7537 12.375 12.3751C12.375 12.9964 12.8787 13.5001 13.5 13.5001C14.1213 13.5001 14.625 12.9964 14.625 12.3751C14.625 11.7537 14.1213 11.2501 13.5 11.2501Z" fill="#A1A1AA"/>
</svg>
