<svg width="21" height="21" viewBox="0 0 21 21" fill="none" xmlns="http://www.w3.org/2000/svg">
<path d="M20.4547 16.5792C19.5226 15.199 17.9959 13.6358 15.5104 12.7471C14.0889 13.5754 12.362 14.0631 10.5003 14.0631C8.63752 14.0631 6.9106 13.5755 5.48903 12.7471C3.00359 13.6358 1.47683 15.1991 0.545222 16.5792C-0.691198 18.4098 0.278183 21 2.41652 21C4.55491 21 10.5003 21 10.5003 21C10.5003 21 16.4451 21 18.5835 21C20.7218 21 21.6912 18.4098 20.4547 16.5792Z" fill="#A1A1AA"/>
<path d="M10.5004 12.331C14.1514 12.331 17.1102 9.86561 17.1102 6.82496V5.50598C17.1102 2.46537 14.1514 0 10.5004 0C6.84883 0 3.88953 2.46537 3.88953 5.50602V6.825C3.88953 9.86561 6.84888 12.331 10.5004 12.331Z" fill="#A1A1AA"/>
</svg>
